<?xml version="1.0" encoding="utf-8"?>
<!-- Generator: Adobe Illustrator 21.1.0, SVG Export Plug-In . SVG Version: 6.00 Build 0)  -->
<svg version="1.1" xmlns="http://www.w3.org/2000/svg" xmlns:xlink="http://www.w3.org/1999/xlink" x="0px" y="0px"
	 viewBox="0 0 86.4 86.4" style="enable-background:new 0 0 86.4 86.4;" xml:space="preserve">
<style type="text/css">
	.st0{enable-background:new    ;}
	.st1{fill-rule:evenodd;clip-rule:evenodd;fill:#231F20;}
	.st2{fill:#FDB813;}
</style>
<g id="Ellipse_1_copy_3_1_" class="st0">
	<g id="Ellipse_1_copy_3">
		<g>
			
				<ellipse transform="matrix(0.9143 -0.405 0.405 0.9143 -13.7953 21.1998)" class="st1" cx="43.2" cy="43.2" rx="43.2" ry="43.2"/>
		</g>
	</g>
</g>
<g id="Sold_x0D_Out">
	<g>
		<path class="st2" d="M24.3,49.3c-1.6,0.7-3,0.8-4.3,0.1c-1.3-0.6-2.3-1.7-3.2-3.4l2.1-1.7c1.4,2.6,2.9,3.6,4.5,2.9
			c0.7-0.3,1.1-0.7,1.3-1.3c0.2-0.5,0.1-1.2-0.2-1.9c-0.2-0.4-0.4-0.8-0.6-1c-0.2-0.3-0.5-0.5-0.9-0.8c-0.4-0.2-0.7-0.4-1-0.5
			c-0.3-0.1-0.7-0.3-1.2-0.4l-4.4-1.4c-0.9-0.3-1.6-0.7-2.2-1.2c-0.6-0.5-1.1-1.2-1.5-2.2c-0.6-1.4-0.7-2.6-0.2-3.7
			c0.5-1.1,1.4-2,2.8-2.6c1.5-0.7,2.8-0.8,3.9-0.3c1.1,0.5,2.1,1.5,3,3.1l-2,1.6c-0.2-0.4-0.4-0.7-0.6-1c-0.2-0.3-0.4-0.6-0.7-0.8
			c-0.3-0.3-0.5-0.5-0.8-0.6c-0.3-0.1-0.6-0.2-0.9-0.2c-0.3,0-0.7,0.1-1.1,0.3c-1.4,0.7-1.7,1.7-1.2,3c0.2,0.6,0.5,1,0.9,1.3
			c0.4,0.3,0.9,0.5,1.5,0.8l4.5,1.4c1.2,0.4,2.2,0.9,3.1,1.5c0.9,0.6,1.5,1.5,2,2.6c0.6,1.4,0.7,2.7,0.2,3.9
			C26.6,47.8,25.7,48.7,24.3,49.3z"/>
		<path class="st2" d="M36.3,44c-0.9,0.4-1.8,0.6-2.6,0.7s-1.5-0.2-2.2-0.5c-0.6-0.4-1.2-0.9-1.7-1.5c-0.5-0.6-1-1.5-1.4-2.4
			L25.2,33c-0.9-2-1.1-3.6-0.8-5c0.4-1.4,1.5-2.5,3.3-3.3c1.8-0.8,3.4-0.9,4.7-0.2c1.3,0.7,2.3,2,3.2,3.9l3.2,7.2
			c0.9,2,1.1,3.7,0.8,5.1C39.2,42.1,38.1,43.2,36.3,44z M34,42.3c0.4,0,0.9-0.1,1.4-0.3c0.5-0.2,0.9-0.5,1.2-0.8
			c0.3-0.3,0.4-0.7,0.5-1.1c0-0.4,0-0.8-0.1-1.2c-0.1-0.4-0.3-0.9-0.5-1.5L32.7,29c-0.3-0.6-0.5-1-0.7-1.4c-0.2-0.4-0.5-0.6-0.8-0.9
			c-0.3-0.2-0.7-0.4-1.1-0.4c-0.4,0-0.9,0.1-1.4,0.3c-0.5,0.2-0.9,0.5-1.2,0.8c-0.3,0.3-0.4,0.6-0.5,1c0,0.4,0,0.8,0.1,1.2
			s0.3,0.9,0.5,1.5l3.7,8.3c0.3,0.6,0.5,1,0.7,1.4c0.2,0.4,0.5,0.7,0.8,0.9C33.2,42.1,33.6,42.3,34,42.3z"/>
		<path class="st2" d="M44.5,40.1l-8.4-18.9l2.6-1.2l7.5,17l4.8-2.1l0.8,1.9L44.5,40.1z"/>
		<path class="st2" d="M54.3,35.8l-8.4-18.9L50,15c2.1-0.9,3.7-1.1,5-0.5c1.3,0.6,2.3,1.8,3.2,3.8l3.1,7c0.9,2.1,1.2,3.8,0.8,5.2
			s-1.5,2.5-3.5,3.4L54.3,35.8z M56.1,32.7l1.5-0.7c0.4-0.2,0.7-0.4,1-0.6c0.3-0.2,0.5-0.4,0.6-0.6c0.2-0.2,0.3-0.5,0.3-0.8
			c0-0.3,0-0.6,0-0.8s-0.1-0.6-0.2-1c-0.1-0.4-0.3-0.8-0.4-1.1c-0.1-0.3-0.3-0.7-0.5-1.2l-2.7-6.2c-0.2-0.5-0.4-0.8-0.5-1.1
			c-0.2-0.3-0.3-0.6-0.5-0.9s-0.4-0.5-0.5-0.7c-0.2-0.2-0.4-0.3-0.6-0.4c-0.2-0.1-0.5-0.2-0.7-0.2c-0.3,0-0.5,0-0.9,0.1
			c-0.3,0.1-0.7,0.2-1.1,0.4l-1.4,0.6L56.1,32.7z"/>
		<path class="st2" d="M41.4,71.9c-0.9,0.4-1.8,0.6-2.6,0.7s-1.5-0.2-2.2-0.5c-0.6-0.4-1.2-0.9-1.7-1.5c-0.5-0.7-1-1.5-1.4-2.4
			l-3.2-7.2c-0.9-2-1.1-3.6-0.8-5c0.4-1.4,1.5-2.5,3.3-3.3c1.8-0.8,3.4-0.9,4.7-0.2s2.3,2,3.2,3.9l3.2,7.2c0.9,2,1.1,3.7,0.8,5.1
			C44.3,70,43.3,71.1,41.4,71.9z M39.1,70.2c0.4,0,0.9-0.1,1.4-0.3c0.5-0.2,0.9-0.5,1.2-0.8c0.3-0.3,0.4-0.7,0.4-1.1
			c0-0.4,0-0.8-0.1-1.2c-0.1-0.4-0.3-0.9-0.5-1.5l-3.7-8.3c-0.3-0.6-0.5-1-0.7-1.4c-0.2-0.4-0.5-0.6-0.8-0.9
			c-0.3-0.2-0.7-0.4-1.1-0.4c-0.4,0-0.9,0.1-1.4,0.3c-0.5,0.2-0.9,0.5-1.2,0.8c-0.3,0.3-0.4,0.6-0.5,1s0,0.8,0.1,1.2
			c0.1,0.4,0.3,0.9,0.5,1.5l3.7,8.3c0.3,0.6,0.5,1,0.7,1.4c0.2,0.4,0.5,0.7,0.8,0.9C38.3,70,38.7,70.2,39.1,70.2z"/>
		<path class="st2" d="M56.6,64.8c-0.5,0.5-1.2,0.9-2,1.2c-0.8,0.4-1.6,0.6-2.3,0.6c-0.7,0.1-1.3,0-1.8-0.2c-0.5-0.2-1-0.5-1.5-1
			s-0.9-1-1.3-1.6c-0.4-0.6-0.7-1.3-1.1-2.2l-5.6-12.6l2.5-1.1l5.6,12.7c0.2,0.5,0.5,1,0.7,1.4c0.2,0.4,0.5,0.7,0.7,1.1
			s0.6,0.6,0.9,0.8c0.3,0.2,0.6,0.3,1,0.3c0.4,0,0.8-0.1,1.2-0.3c0.4-0.2,0.8-0.4,1-0.7c0.2-0.3,0.4-0.6,0.5-0.9
			c0.1-0.3,0.1-0.7,0-1.2c-0.1-0.4-0.2-0.9-0.3-1.3c-0.1-0.4-0.3-0.9-0.6-1.4l-5.6-12.7l2.5-1.1l5.6,12.6c0.4,0.8,0.7,1.6,0.9,2.3
			c0.2,0.7,0.3,1.3,0.3,2c0,0.7-0.1,1.3-0.3,1.8C57.4,63.8,57.1,64.3,56.6,64.8z"/>
		<path class="st2" d="M64.8,61.3l-7.5-17l-3.5,1.5l-0.9-2l9.5-4.2l0.9,2l-3.3,1.5l7.5,17L64.8,61.3z"/>
	</g>
</g>
</svg>
